<mxfile host="Electron" modified="2024-06-09T18:56:42.711Z" agent="Mozilla/5.0 (Windows NT 10.0; Win64; x64) AppleWebKit/537.36 (KHTML, like Gecko) draw.io/24.5.1 Chrome/124.0.6367.207 Electron/30.0.6 Safari/537.36" etag="eCGU7UsfH5gbxgt5CsIu" version="24.5.1" type="device">
  <diagram name="Page-1" id="Yp3pKR1Z_C9z_jeVdbPI">
    <mxGraphModel dx="5157" dy="2620" grid="1" gridSize="10" guides="1" tooltips="1" connect="1" arrows="1" fold="1" page="1" pageScale="1" pageWidth="850" pageHeight="1100" math="0" shadow="0">
      <root>
        <mxCell id="0" />
        <mxCell id="1" parent="0" />
        <mxCell id="k0gBEbsWEV2b1fCz5B16-71" style="edgeStyle=orthogonalEdgeStyle;rounded=0;orthogonalLoop=1;jettySize=auto;html=1;exitX=0.5;exitY=1;exitDx=0;exitDy=0;entryX=0.5;entryY=0;entryDx=0;entryDy=0;" parent="1" source="k0gBEbsWEV2b1fCz5B16-1" target="k0gBEbsWEV2b1fCz5B16-4" edge="1">
          <mxGeometry relative="1" as="geometry" />
        </mxCell>
        <mxCell id="k0gBEbsWEV2b1fCz5B16-1" value="Start Battleship" style="ellipse;whiteSpace=wrap;html=1;" parent="1" vertex="1">
          <mxGeometry x="-1772.5" y="-530" width="120" height="40" as="geometry" />
        </mxCell>
        <mxCell id="k0gBEbsWEV2b1fCz5B16-18" style="edgeStyle=orthogonalEdgeStyle;rounded=0;orthogonalLoop=1;jettySize=auto;html=1;exitX=1;exitY=0.5;exitDx=0;exitDy=0;entryX=0;entryY=0.5;entryDx=0;entryDy=0;" parent="1" source="k0gBEbsWEV2b1fCz5B16-3" target="k0gBEbsWEV2b1fCz5B16-7" edge="1">
          <mxGeometry relative="1" as="geometry" />
        </mxCell>
        <mxCell id="k0gBEbsWEV2b1fCz5B16-38" style="edgeStyle=orthogonalEdgeStyle;rounded=0;orthogonalLoop=1;jettySize=auto;html=1;exitX=0.5;exitY=1;exitDx=0;exitDy=0;entryX=0.5;entryY=0;entryDx=0;entryDy=0;" parent="1" source="k0gBEbsWEV2b1fCz5B16-3" target="k0gBEbsWEV2b1fCz5B16-30" edge="1">
          <mxGeometry relative="1" as="geometry" />
        </mxCell>
        <mxCell id="k0gBEbsWEV2b1fCz5B16-3" value="Login?" style="rhombus;whiteSpace=wrap;html=1;" parent="1" vertex="1">
          <mxGeometry x="-1787.5" y="-380" width="150" height="80" as="geometry" />
        </mxCell>
        <mxCell id="k0gBEbsWEV2b1fCz5B16-17" style="edgeStyle=orthogonalEdgeStyle;rounded=0;orthogonalLoop=1;jettySize=auto;html=1;exitX=0.5;exitY=1;exitDx=0;exitDy=0;entryX=0.5;entryY=0;entryDx=0;entryDy=0;" parent="1" source="k0gBEbsWEV2b1fCz5B16-4" target="k0gBEbsWEV2b1fCz5B16-3" edge="1">
          <mxGeometry relative="1" as="geometry" />
        </mxCell>
        <mxCell id="k0gBEbsWEV2b1fCz5B16-4" value="Display Login Menu&lt;div&gt;(login or register)&lt;/div&gt;" style="shape=parallelogram;perimeter=parallelogramPerimeter;whiteSpace=wrap;html=1;fixedSize=1;" parent="1" vertex="1">
          <mxGeometry x="-1791.25" y="-460" width="157.5" height="60" as="geometry" />
        </mxCell>
        <mxCell id="k0gBEbsWEV2b1fCz5B16-19" style="edgeStyle=orthogonalEdgeStyle;rounded=0;orthogonalLoop=1;jettySize=auto;html=1;exitX=1;exitY=0.5;exitDx=0;exitDy=0;entryX=0;entryY=0.5;entryDx=0;entryDy=0;" parent="1" source="k0gBEbsWEV2b1fCz5B16-7" target="k0gBEbsWEV2b1fCz5B16-8" edge="1">
          <mxGeometry relative="1" as="geometry" />
        </mxCell>
        <mxCell id="k0gBEbsWEV2b1fCz5B16-7" value="Get user email" style="shape=parallelogram;perimeter=parallelogramPerimeter;whiteSpace=wrap;html=1;fixedSize=1;" parent="1" vertex="1">
          <mxGeometry x="-1622.5" y="-370" width="157.5" height="60" as="geometry" />
        </mxCell>
        <mxCell id="k0gBEbsWEV2b1fCz5B16-20" style="edgeStyle=orthogonalEdgeStyle;rounded=0;orthogonalLoop=1;jettySize=auto;html=1;exitX=1;exitY=0.5;exitDx=0;exitDy=0;entryX=0;entryY=0.5;entryDx=0;entryDy=0;" parent="1" source="k0gBEbsWEV2b1fCz5B16-8" target="k0gBEbsWEV2b1fCz5B16-9" edge="1">
          <mxGeometry relative="1" as="geometry" />
        </mxCell>
        <mxCell id="k0gBEbsWEV2b1fCz5B16-8" value="read in user database" style="shape=parallelogram;perimeter=parallelogramPerimeter;whiteSpace=wrap;html=1;fixedSize=1;" parent="1" vertex="1">
          <mxGeometry x="-1465" y="-370" width="157.5" height="60" as="geometry" />
        </mxCell>
        <mxCell id="k0gBEbsWEV2b1fCz5B16-21" style="edgeStyle=orthogonalEdgeStyle;rounded=0;orthogonalLoop=1;jettySize=auto;html=1;exitX=1;exitY=0.5;exitDx=0;exitDy=0;entryX=0;entryY=0.5;entryDx=0;entryDy=0;" parent="1" source="k0gBEbsWEV2b1fCz5B16-9" target="k0gBEbsWEV2b1fCz5B16-12" edge="1">
          <mxGeometry relative="1" as="geometry" />
        </mxCell>
        <mxCell id="k0gBEbsWEV2b1fCz5B16-36" style="edgeStyle=orthogonalEdgeStyle;rounded=0;orthogonalLoop=1;jettySize=auto;html=1;exitX=0.5;exitY=1;exitDx=0;exitDy=0;entryX=0.5;entryY=0;entryDx=0;entryDy=0;" parent="1" source="k0gBEbsWEV2b1fCz5B16-9" target="k0gBEbsWEV2b1fCz5B16-35" edge="1">
          <mxGeometry relative="1" as="geometry" />
        </mxCell>
        <mxCell id="k0gBEbsWEV2b1fCz5B16-9" value="while&lt;div&gt;email != user&lt;/div&gt;&lt;div&gt;&lt;br&gt;&lt;/div&gt;" style="rhombus;whiteSpace=wrap;html=1;" parent="1" vertex="1">
          <mxGeometry x="-1292.5" y="-380" width="150" height="80" as="geometry" />
        </mxCell>
        <mxCell id="k0gBEbsWEV2b1fCz5B16-76" style="edgeStyle=orthogonalEdgeStyle;rounded=0;orthogonalLoop=1;jettySize=auto;html=1;exitX=1;exitY=0.5;exitDx=0;exitDy=0;entryX=0;entryY=0.5;entryDx=0;entryDy=0;" parent="1" source="k0gBEbsWEV2b1fCz5B16-11" target="k0gBEbsWEV2b1fCz5B16-73" edge="1">
          <mxGeometry relative="1" as="geometry" />
        </mxCell>
        <mxCell id="k0gBEbsWEV2b1fCz5B16-11" value="Login success" style="rounded=0;whiteSpace=wrap;html=1;" parent="1" vertex="1">
          <mxGeometry x="-950" y="-170" width="120" height="60" as="geometry" />
        </mxCell>
        <mxCell id="k0gBEbsWEV2b1fCz5B16-28" style="edgeStyle=orthogonalEdgeStyle;rounded=0;orthogonalLoop=1;jettySize=auto;html=1;exitX=0.5;exitY=0;exitDx=0;exitDy=0;entryX=0.5;entryY=1;entryDx=0;entryDy=0;" parent="1" source="k0gBEbsWEV2b1fCz5B16-12" target="k0gBEbsWEV2b1fCz5B16-14" edge="1">
          <mxGeometry relative="1" as="geometry" />
        </mxCell>
        <mxCell id="k0gBEbsWEV2b1fCz5B16-70" style="edgeStyle=orthogonalEdgeStyle;rounded=0;orthogonalLoop=1;jettySize=auto;html=1;exitX=0.5;exitY=1;exitDx=0;exitDy=0;entryX=0.5;entryY=0;entryDx=0;entryDy=0;" parent="1" source="k0gBEbsWEV2b1fCz5B16-12" target="k0gBEbsWEV2b1fCz5B16-43" edge="1">
          <mxGeometry relative="1" as="geometry" />
        </mxCell>
        <mxCell id="k0gBEbsWEV2b1fCz5B16-12" value="password is valid" style="rhombus;whiteSpace=wrap;html=1;" parent="1" vertex="1">
          <mxGeometry x="-1128.75" y="-380" width="150" height="80" as="geometry" />
        </mxCell>
        <mxCell id="k0gBEbsWEV2b1fCz5B16-29" style="edgeStyle=orthogonalEdgeStyle;rounded=0;orthogonalLoop=1;jettySize=auto;html=1;exitX=0;exitY=0.5;exitDx=0;exitDy=0;entryX=0.5;entryY=0;entryDx=0;entryDy=0;" parent="1" source="k0gBEbsWEV2b1fCz5B16-14" target="k0gBEbsWEV2b1fCz5B16-9" edge="1">
          <mxGeometry relative="1" as="geometry" />
        </mxCell>
        <mxCell id="k0gBEbsWEV2b1fCz5B16-14" value="Relay bad login&amp;nbsp;&lt;div&gt;credentials error&lt;/div&gt;" style="shape=parallelogram;perimeter=parallelogramPerimeter;whiteSpace=wrap;html=1;fixedSize=1;" parent="1" vertex="1">
          <mxGeometry x="-1132.5" y="-460" width="157.5" height="60" as="geometry" />
        </mxCell>
        <mxCell id="k0gBEbsWEV2b1fCz5B16-39" style="edgeStyle=orthogonalEdgeStyle;rounded=0;orthogonalLoop=1;jettySize=auto;html=1;exitX=0.5;exitY=1;exitDx=0;exitDy=0;entryX=0.5;entryY=0;entryDx=0;entryDy=0;" parent="1" source="k0gBEbsWEV2b1fCz5B16-30" target="k0gBEbsWEV2b1fCz5B16-32" edge="1">
          <mxGeometry relative="1" as="geometry" />
        </mxCell>
        <mxCell id="k0gBEbsWEV2b1fCz5B16-30" value="Begin new user registration" style="rounded=0;whiteSpace=wrap;html=1;" parent="1" vertex="1">
          <mxGeometry x="-1772.5" y="-280" width="120" height="60" as="geometry" />
        </mxCell>
        <mxCell id="k0gBEbsWEV2b1fCz5B16-41" style="edgeStyle=orthogonalEdgeStyle;rounded=0;orthogonalLoop=1;jettySize=auto;html=1;exitX=0.5;exitY=1;exitDx=0;exitDy=0;entryX=0.5;entryY=0;entryDx=0;entryDy=0;" parent="1" source="k0gBEbsWEV2b1fCz5B16-31" target="k0gBEbsWEV2b1fCz5B16-33" edge="1">
          <mxGeometry relative="1" as="geometry" />
        </mxCell>
        <mxCell id="k0gBEbsWEV2b1fCz5B16-31" value="Create new User(em,pw);" style="rounded=0;whiteSpace=wrap;html=1;" parent="1" vertex="1">
          <mxGeometry x="-1772.5" y="-120" width="120" height="60" as="geometry" />
        </mxCell>
        <mxCell id="k0gBEbsWEV2b1fCz5B16-40" style="edgeStyle=orthogonalEdgeStyle;rounded=0;orthogonalLoop=1;jettySize=auto;html=1;exitX=0.5;exitY=1;exitDx=0;exitDy=0;entryX=0.5;entryY=0;entryDx=0;entryDy=0;" parent="1" source="k0gBEbsWEV2b1fCz5B16-32" target="k0gBEbsWEV2b1fCz5B16-31" edge="1">
          <mxGeometry relative="1" as="geometry" />
        </mxCell>
        <mxCell id="k0gBEbsWEV2b1fCz5B16-32" value="Get user email&amp;nbsp;&lt;div&gt;&amp;amp; password&lt;/div&gt;" style="shape=parallelogram;perimeter=parallelogramPerimeter;whiteSpace=wrap;html=1;fixedSize=1;" parent="1" vertex="1">
          <mxGeometry x="-1791.25" y="-200" width="157.5" height="60" as="geometry" />
        </mxCell>
        <mxCell id="k0gBEbsWEV2b1fCz5B16-72" style="edgeStyle=orthogonalEdgeStyle;rounded=0;orthogonalLoop=1;jettySize=auto;html=1;exitX=0;exitY=0.5;exitDx=0;exitDy=0;entryX=0;entryY=0.5;entryDx=0;entryDy=0;" parent="1" source="k0gBEbsWEV2b1fCz5B16-33" target="k0gBEbsWEV2b1fCz5B16-3" edge="1">
          <mxGeometry relative="1" as="geometry">
            <Array as="points">
              <mxPoint x="-1860" y="-10" />
              <mxPoint x="-1860" y="-340" />
            </Array>
          </mxGeometry>
        </mxCell>
        <mxCell id="k0gBEbsWEV2b1fCz5B16-33" value="store in user database" style="shape=parallelogram;perimeter=parallelogramPerimeter;whiteSpace=wrap;html=1;fixedSize=1;" parent="1" vertex="1">
          <mxGeometry x="-1791.25" y="-40" width="157.5" height="60" as="geometry" />
        </mxCell>
        <mxCell id="k0gBEbsWEV2b1fCz5B16-37" style="edgeStyle=orthogonalEdgeStyle;rounded=0;orthogonalLoop=1;jettySize=auto;html=1;exitX=0;exitY=0.5;exitDx=0;exitDy=0;entryX=1;entryY=0.5;entryDx=0;entryDy=0;" parent="1" source="k0gBEbsWEV2b1fCz5B16-35" target="k0gBEbsWEV2b1fCz5B16-30" edge="1">
          <mxGeometry relative="1" as="geometry" />
        </mxCell>
        <mxCell id="k0gBEbsWEV2b1fCz5B16-35" value="user not found message" style="shape=parallelogram;perimeter=parallelogramPerimeter;whiteSpace=wrap;html=1;fixedSize=1;" parent="1" vertex="1">
          <mxGeometry x="-1296.25" y="-280" width="157.5" height="60" as="geometry" />
        </mxCell>
        <mxCell id="k9H31jI7IDeOXlhfYxdj-3" value="" style="edgeStyle=orthogonalEdgeStyle;rounded=0;orthogonalLoop=1;jettySize=auto;html=1;" edge="1" parent="1" source="k0gBEbsWEV2b1fCz5B16-42" target="k0gBEbsWEV2b1fCz5B16-85">
          <mxGeometry relative="1" as="geometry" />
        </mxCell>
        <mxCell id="k9H31jI7IDeOXlhfYxdj-13" style="edgeStyle=orthogonalEdgeStyle;rounded=0;orthogonalLoop=1;jettySize=auto;html=1;exitX=0.5;exitY=1;exitDx=0;exitDy=0;entryX=0.5;entryY=0;entryDx=0;entryDy=0;" edge="1" parent="1" source="k0gBEbsWEV2b1fCz5B16-42" target="k9H31jI7IDeOXlhfYxdj-11">
          <mxGeometry relative="1" as="geometry" />
        </mxCell>
        <mxCell id="k9H31jI7IDeOXlhfYxdj-14" style="edgeStyle=orthogonalEdgeStyle;rounded=0;orthogonalLoop=1;jettySize=auto;html=1;exitX=0.5;exitY=1;exitDx=0;exitDy=0;" edge="1" parent="1" source="k0gBEbsWEV2b1fCz5B16-42" target="k9H31jI7IDeOXlhfYxdj-12">
          <mxGeometry relative="1" as="geometry" />
        </mxCell>
        <mxCell id="k9H31jI7IDeOXlhfYxdj-16" style="edgeStyle=orthogonalEdgeStyle;rounded=0;orthogonalLoop=1;jettySize=auto;html=1;exitX=0.5;exitY=1;exitDx=0;exitDy=0;entryX=0.5;entryY=0;entryDx=0;entryDy=0;" edge="1" parent="1" source="k0gBEbsWEV2b1fCz5B16-42" target="k9H31jI7IDeOXlhfYxdj-15">
          <mxGeometry relative="1" as="geometry" />
        </mxCell>
        <mxCell id="k9H31jI7IDeOXlhfYxdj-22" style="edgeStyle=orthogonalEdgeStyle;rounded=0;orthogonalLoop=1;jettySize=auto;html=1;exitX=0.5;exitY=1;exitDx=0;exitDy=0;" edge="1" parent="1" source="k0gBEbsWEV2b1fCz5B16-42" target="k9H31jI7IDeOXlhfYxdj-21">
          <mxGeometry relative="1" as="geometry" />
        </mxCell>
        <mxCell id="k9H31jI7IDeOXlhfYxdj-25" style="edgeStyle=orthogonalEdgeStyle;rounded=0;orthogonalLoop=1;jettySize=auto;html=1;exitX=0.5;exitY=1;exitDx=0;exitDy=0;" edge="1" parent="1" source="k0gBEbsWEV2b1fCz5B16-42" target="k9H31jI7IDeOXlhfYxdj-17">
          <mxGeometry relative="1" as="geometry" />
        </mxCell>
        <mxCell id="k0gBEbsWEV2b1fCz5B16-42" value="Display User Menu" style="shape=parallelogram;perimeter=parallelogramPerimeter;whiteSpace=wrap;html=1;fixedSize=1;" parent="1" vertex="1">
          <mxGeometry x="-550" y="-105" width="157.5" height="110" as="geometry" />
        </mxCell>
        <mxCell id="k0gBEbsWEV2b1fCz5B16-55" style="edgeStyle=orthogonalEdgeStyle;rounded=0;orthogonalLoop=1;jettySize=auto;html=1;exitX=0.5;exitY=1;exitDx=0;exitDy=0;entryX=0;entryY=0.5;entryDx=0;entryDy=0;" parent="1" source="k0gBEbsWEV2b1fCz5B16-43" target="k0gBEbsWEV2b1fCz5B16-11" edge="1">
          <mxGeometry relative="1" as="geometry">
            <mxPoint x="-1053.75" y="-180" as="targetPoint" />
          </mxGeometry>
        </mxCell>
        <mxCell id="k0gBEbsWEV2b1fCz5B16-43" value="i = 0&lt;div&gt;match = false&lt;/div&gt;" style="rounded=0;whiteSpace=wrap;html=1;" parent="1" vertex="1">
          <mxGeometry x="-1113.75" y="-280" width="120" height="60" as="geometry" />
        </mxCell>
        <mxCell id="k0gBEbsWEV2b1fCz5B16-78" style="edgeStyle=orthogonalEdgeStyle;rounded=0;orthogonalLoop=1;jettySize=auto;html=1;exitX=0.5;exitY=1;exitDx=0;exitDy=0;entryX=0.5;entryY=0;entryDx=0;entryDy=0;" parent="1" source="k0gBEbsWEV2b1fCz5B16-73" target="k0gBEbsWEV2b1fCz5B16-74" edge="1">
          <mxGeometry relative="1" as="geometry" />
        </mxCell>
        <mxCell id="k0gBEbsWEV2b1fCz5B16-80" style="edgeStyle=orthogonalEdgeStyle;rounded=0;orthogonalLoop=1;jettySize=auto;html=1;exitX=1;exitY=0.5;exitDx=0;exitDy=0;entryX=0.5;entryY=0;entryDx=0;entryDy=0;" parent="1" source="k0gBEbsWEV2b1fCz5B16-73" target="k0gBEbsWEV2b1fCz5B16-42" edge="1">
          <mxGeometry relative="1" as="geometry" />
        </mxCell>
        <mxCell id="k0gBEbsWEV2b1fCz5B16-73" value="isAdmin?" style="rhombus;whiteSpace=wrap;html=1;" parent="1" vertex="1">
          <mxGeometry x="-780" y="-180" width="150" height="80" as="geometry" />
        </mxCell>
        <mxCell id="k9H31jI7IDeOXlhfYxdj-1" value="" style="edgeStyle=orthogonalEdgeStyle;rounded=0;orthogonalLoop=1;jettySize=auto;html=1;" edge="1" parent="1" source="k0gBEbsWEV2b1fCz5B16-74" target="k0gBEbsWEV2b1fCz5B16-42">
          <mxGeometry relative="1" as="geometry" />
        </mxCell>
        <mxCell id="k0gBEbsWEV2b1fCz5B16-74" value="additionally display&lt;div&gt;admin menu&lt;/div&gt;" style="shape=parallelogram;perimeter=parallelogramPerimeter;whiteSpace=wrap;html=1;fixedSize=1;" parent="1" vertex="1">
          <mxGeometry x="-783.75" y="-80" width="157.5" height="60" as="geometry" />
        </mxCell>
        <mxCell id="k0gBEbsWEV2b1fCz5B16-85" value="New Game" style="rounded=0;whiteSpace=wrap;html=1;" parent="1" vertex="1">
          <mxGeometry x="-531.25" y="70" width="120" height="60" as="geometry" />
        </mxCell>
        <mxCell id="k9H31jI7IDeOXlhfYxdj-8" value="" style="edgeStyle=orthogonalEdgeStyle;rounded=0;orthogonalLoop=1;jettySize=auto;html=1;entryX=0.5;entryY=0;entryDx=0;entryDy=0;" edge="1" parent="1" source="k0gBEbsWEV2b1fCz5B16-87" target="k0gBEbsWEV2b1fCz5B16-88">
          <mxGeometry relative="1" as="geometry">
            <Array as="points">
              <mxPoint x="-471" y="220" />
              <mxPoint x="-380" y="220" />
            </Array>
          </mxGeometry>
        </mxCell>
        <mxCell id="k0gBEbsWEV2b1fCz5B16-87" value="place ships" style="rounded=0;whiteSpace=wrap;html=1;" parent="1" vertex="1">
          <mxGeometry x="-531.25" y="150" width="120" height="60" as="geometry" />
        </mxCell>
        <mxCell id="k9H31jI7IDeOXlhfYxdj-9" value="" style="edgeStyle=orthogonalEdgeStyle;rounded=0;orthogonalLoop=1;jettySize=auto;html=1;" edge="1" parent="1" source="k0gBEbsWEV2b1fCz5B16-88" target="k0gBEbsWEV2b1fCz5B16-89">
          <mxGeometry relative="1" as="geometry" />
        </mxCell>
        <mxCell id="k0gBEbsWEV2b1fCz5B16-88" value="ask for coords" style="rounded=0;whiteSpace=wrap;html=1;" parent="1" vertex="1">
          <mxGeometry x="-440" y="230" width="120" height="60" as="geometry" />
        </mxCell>
        <mxCell id="k9H31jI7IDeOXlhfYxdj-10" style="edgeStyle=orthogonalEdgeStyle;rounded=0;orthogonalLoop=1;jettySize=auto;html=1;exitX=1;exitY=0.5;exitDx=0;exitDy=0;entryX=1;entryY=0.5;entryDx=0;entryDy=0;" edge="1" parent="1" source="k0gBEbsWEV2b1fCz5B16-89" target="k0gBEbsWEV2b1fCz5B16-42">
          <mxGeometry relative="1" as="geometry">
            <Array as="points">
              <mxPoint x="-150" y="340" />
              <mxPoint x="-150" y="-50" />
            </Array>
          </mxGeometry>
        </mxCell>
        <mxCell id="k9H31jI7IDeOXlhfYxdj-20" value="" style="edgeStyle=orthogonalEdgeStyle;rounded=0;orthogonalLoop=1;jettySize=auto;html=1;startArrow=classic;startFill=1;" edge="1" parent="1" source="k0gBEbsWEV2b1fCz5B16-89">
          <mxGeometry relative="1" as="geometry">
            <mxPoint x="-470" y="340" as="targetPoint" />
          </mxGeometry>
        </mxCell>
        <mxCell id="k0gBEbsWEV2b1fCz5B16-89" value="check if hit" style="rounded=0;whiteSpace=wrap;html=1;" parent="1" vertex="1">
          <mxGeometry x="-440" y="310" width="120" height="60" as="geometry" />
        </mxCell>
        <mxCell id="k9H31jI7IDeOXlhfYxdj-5" value="" style="edgeStyle=orthogonalEdgeStyle;rounded=0;orthogonalLoop=1;jettySize=auto;html=1;exitX=0.5;exitY=1;exitDx=0;exitDy=0;" edge="1" parent="1" source="k0gBEbsWEV2b1fCz5B16-85">
          <mxGeometry relative="1" as="geometry">
            <mxPoint x="-461" y="15" as="sourcePoint" />
            <mxPoint x="-471" y="150" as="targetPoint" />
          </mxGeometry>
        </mxCell>
        <mxCell id="k9H31jI7IDeOXlhfYxdj-11" value="Update Account details" style="rounded=0;whiteSpace=wrap;html=1;" vertex="1" parent="1">
          <mxGeometry x="-670" y="70" width="120" height="60" as="geometry" />
        </mxCell>
        <mxCell id="k9H31jI7IDeOXlhfYxdj-12" value="Edit user details" style="rounded=0;whiteSpace=wrap;html=1;" vertex="1" parent="1">
          <mxGeometry x="-810" y="70" width="120" height="60" as="geometry" />
        </mxCell>
        <mxCell id="k9H31jI7IDeOXlhfYxdj-15" value="Admin menu" style="rounded=0;whiteSpace=wrap;html=1;" vertex="1" parent="1">
          <mxGeometry x="-950" y="70" width="120" height="60" as="geometry" />
        </mxCell>
        <mxCell id="k9H31jI7IDeOXlhfYxdj-18" style="edgeStyle=orthogonalEdgeStyle;rounded=0;orthogonalLoop=1;jettySize=auto;html=1;exitX=0.5;exitY=1;exitDx=0;exitDy=0;entryX=0.5;entryY=0;entryDx=0;entryDy=0;" edge="1" parent="1" source="k9H31jI7IDeOXlhfYxdj-17" target="k0gBEbsWEV2b1fCz5B16-88">
          <mxGeometry relative="1" as="geometry" />
        </mxCell>
        <mxCell id="k9H31jI7IDeOXlhfYxdj-17" value="Load game" style="rounded=0;whiteSpace=wrap;html=1;" vertex="1" parent="1">
          <mxGeometry x="-392.5" y="70" width="120" height="60" as="geometry" />
        </mxCell>
        <mxCell id="k9H31jI7IDeOXlhfYxdj-23" style="edgeStyle=orthogonalEdgeStyle;rounded=0;orthogonalLoop=1;jettySize=auto;html=1;exitX=0;exitY=0.5;exitDx=0;exitDy=0;" edge="1" parent="1" source="k9H31jI7IDeOXlhfYxdj-21">
          <mxGeometry relative="1" as="geometry">
            <mxPoint x="-1790" y="-340" as="targetPoint" />
            <Array as="points">
              <mxPoint x="-1860" y="100" />
              <mxPoint x="-1860" y="-340" />
            </Array>
          </mxGeometry>
        </mxCell>
        <mxCell id="k9H31jI7IDeOXlhfYxdj-21" value="Logout" style="rounded=0;whiteSpace=wrap;html=1;" vertex="1" parent="1">
          <mxGeometry x="-1090" y="70" width="120" height="60" as="geometry" />
        </mxCell>
        <mxCell id="k9H31jI7IDeOXlhfYxdj-24" value="Save game" style="rhombus;whiteSpace=wrap;html=1;" vertex="1" parent="1">
          <mxGeometry x="-620" y="300" width="150" height="80" as="geometry" />
        </mxCell>
      </root>
    </mxGraphModel>
  </diagram>
</mxfile>
